<svg width="1440" height="576" viewBox="0 0 1440 576" fill="#292929" xmlns="http://www.w3.org/2000/svg"><path d="M1051.41 742.957C986.367 684.04 884.916 606.073 739.667 545.077C583.975 479.007 432.825 461.618 321.344 459.826C209.202 457.913 136.759 471.693 122.772 466.613C85.1845 454.576 192.863 431.955 211.761 429.244C-107.952 453.941 -349.08 600.274 -496.023 741.267C-512.062 755.541 -548.67 782.495 -502.129 697.211C-503.52 698.868 -556.265 737.624 -616.484 805.34C-677.827 873.489 -746.928 971.411 -778.134 1073.15C-775.649 1068.47 -678.174 960.689 -690.846 1000.02C-762.706 1145.53 -756.31 1232.64 -757.024 1234.82C-755.25 1233.06 -747.489 1174.42 -672.08 1063.51C-596.461 955.452 -452.346 794.449 -187.01 676.045C-186.994 676.457 -137.815 654.371 -73.6983 635.628C-9.65392 616.281 69.3004 600.182 125.908 600.304C125.948 600.084 54.566 589.695 65.2347 570.948C71.2165 560.761 98.7961 546.76 168.061 534.222C237.07 522.592 347.888 512.494 514.524 532.961C666.487 550.633 833.946 622.744 952.667 696.704C1073.07 769.652 1144.61 844.38 1145.69 842.712C1145.02 842.908 1116.53 802.477 1051.41 742.957Z" fill="#292929"></path><path d="M-298.343 392.49C-115.904 303.424 168.142 207.68 512.518 247.036C512.314 247.408 575.746 253.766 650.045 271.637C724.559 288.82 810.065 317.585 858.573 345.599C858.573 345.599 814.385 305.278 852.806 300.923C872.697 298.755 914.453 305.094 991.371 335.847C1067.63 367.209 1178.96 423.014 1323.03 535.199C1454.47 637.007 1561.24 780.931 1627.02 897.247C1694.15 1013.9 1720.31 1103.04 1721.69 1102.43C1721.32 1102.22 1719.84 1064 1698.96 992.592C1677.69 921.609 1637.15 817.501 1550.05 695.23C1457.09 563.626 1334.76 461.652 1235.91 394.699C1136.83 326.979 1061.17 294.501 1057.46 284.647C1046.61 259.274 1164.32 310.191 1185.87 321.186C886.604 144.246 543.068 105.27 261.129 152.264C232.628 157.053 176.281 159.251 332.169 113.369C324.086 114.586 242.975 117.251 122.713 146.364C-3.31285 176.432 -172.621 235.926 -332.106 340.786C-315.043 332.152 -145.104 270.181 -205.622 306.938C-447.141 434.112 -565.881 566.444 -568.285 566.417C-565.681 567.843 -482.28 483.557 -298.343 392.49Z" fill="#292929"></path><path d="M1666.25 315.786C1652.93 305.51 1633.88 292.013 1642.95 293.112C1651.73 294.61 1688.38 310.568 1781.6 368.228C1772.19 360.978 1705.32 300.094 1582.54 224.716C1451.73 144.703 1256.68 48.0488 1014.14 -0.760674C1038.86 6.80837 1212.09 77.6477 1123.32 55.8814C789.448 -40.201 542.601 -11.7999 544.151 -14.3368C543.354 -9.93633 698.437 -25.786 932.122 35.5088C1163.25 94.8413 1473.18 231.262 1722.41 493.988C1722.12 494.072 1768.17 541.14 1814.62 601.64C1861.58 661.78 1909.02 735.323 1924.13 778.83C1923.94 778.886 1930.13 740.194 1975.45 776.539C1998.17 795.109 2031.34 833.025 2073.28 906.616C2114.7 980.251 2168.01 1088.85 2207.18 1251.71C2307.98 1670.65 2194.76 1791.58 2181.61 1804.69C2192.76 1795.81 2274.26 1737.08 2299.75 1528.45C2313.74 1406.32 2289.25 1268.35 2259.09 1163.4C2229.61 1057.93 2194.35 985.411 2201.71 982.426C2220.69 973.959 2280.63 1098.44 2288.83 1118.65C2187.21 808.091 1946.82 508.608 1666.25 315.786Z" fill="#292929"></path><path d="M1999.6 1057.66C2025.56 1064.86 2103.35 1139.22 2139.32 1545.24C2139.32 1545.24 2212.13 1153.16 1960.21 813.501C1960.21 813.501 2031.54 979.454 2002.98 985.824C1974.32 992.221 1949.96 887.864 1844.61 728.107C1739.22 568.255 1453.16 209.819 874.66 70.9568C874.66 70.9568 1389.5 219.782 1627.64 541.174C1627.64 541.174 1816.73 783.14 1785.77 847.615C1766.39 887.87 1575.22 437.414 1145.13 271.629C1145.13 271.629 1525.8 445.82 1745.46 895.031C2004.17 1423.99 1890.34 1760.96 1890.27 1761.09C1893.16 1753.16 1905.07 1743.63 1910.08 1736.54C1926.8 1712.49 1940.1 1685.99 1950.68 1658.73C1965.35 1620.89 1974.85 1581.02 1980.4 1540.85C1983.9 1515.03 1986.18 1488.63 1986.87 1462.49C1987.71 1435.78 1986.98 1408.7 1992.74 1382.43C1993.73 1377.97 1994.94 1373.55 1997.52 1369.88C2000.09 1366.21 2004.42 1363.91 2009.01 1363.92C2048.9 1364.24 2044.97 1490.51 2043.21 1514.78C2037.79 1589.61 2017.27 1668.75 1977.12 1732.78C1977.05 1732.91 1976.98 1733.03 1976.89 1733.06C2006 1691.52 2034.71 1648.96 2051.56 1601.11C2106.1 1445.87 2062.55 1272.32 2002.15 1125.57C1998.21 1115.99 1968.43 1049.06 1999.6 1057.66Z" fill="#292929"></path></svg>